<svg 
 xmlns="http://www.w3.org/2000/svg"
 xmlns:xlink="http://www.w3.org/1999/xlink"
 width="311px" height="27px">
<path fill-rule="evenodd"  fill="rgb(34, 185, 255)"
 d="M304.064,15.992 L310.112,26.000 L303.308,26.000 L297.800,16.388 L296.396,16.388 L296.396,26.000 L290.240,26.000 L290.240,0.548 L300.752,0.548 C302.768,0.548 304.471,0.896 305.864,1.592 C307.255,2.288 308.299,3.242 308.996,4.454 C309.691,5.666 310.040,7.052 310.040,8.612 C310.040,10.460 309.529,12.032 308.510,13.328 C307.489,14.624 306.008,15.512 304.064,15.992 ZM302.894,6.596 C302.305,6.020 301.411,5.732 300.212,5.732 L296.396,5.732 L296.396,12.176 L300.212,12.176 C301.436,12.176 302.336,11.906 302.912,11.366 C303.488,10.826 303.776,10.028 303.776,8.972 C303.776,7.964 303.481,7.172 302.894,6.596 ZM270.908,0.548 L286.748,0.548 L286.748,5.444 L277.064,5.444 L277.064,10.772 L285.668,10.772 L285.668,15.416 L277.064,15.416 L277.064,21.068 L286.748,21.068 L286.748,26.000 L270.908,26.000 L270.908,0.548 ZM250.208,10.376 L250.208,26.000 L244.052,26.000 L244.052,0.548 L250.208,0.548 L260.504,16.316 L260.504,0.548 L266.660,0.548 L266.660,26.000 L260.504,26.000 L250.208,10.376 ZM223.353,10.376 L223.353,26.000 L217.197,26.000 L217.197,0.548 L223.353,0.548 L233.649,16.316 L233.649,0.548 L239.805,0.548 L239.805,26.000 L233.649,26.000 L223.353,10.376 ZM206.793,0.548 L212.949,0.548 L212.949,26.000 L206.793,26.000 L206.793,0.548 ZM189.838,26.000 L185.770,8.972 L181.666,26.000 L174.034,26.000 L167.950,0.548 L174.646,0.548 L177.922,18.980 L182.386,0.548 L189.118,0.548 L193.582,18.980 L196.894,0.548 L203.554,0.548 L197.470,26.000 L189.838,26.000 ZM149.626,0.548 L165.466,0.548 L165.466,5.444 L155.782,5.444 L155.782,10.772 L164.386,10.772 L164.386,15.416 L155.782,15.416 L155.782,21.068 L165.466,21.068 L165.466,26.000 L149.626,26.000 L149.626,0.548 ZM139.186,15.380 L129.538,15.380 L129.538,26.000 L123.382,26.000 L123.382,0.548 L129.538,0.548 L129.538,10.412 L139.186,10.412 L139.186,0.548 L145.378,0.548 L145.378,26.000 L139.186,26.000 L139.186,15.380 ZM113.879,26.000 L107.687,26.000 L107.687,5.444 L100.847,5.444 L100.847,0.548 L120.791,0.548 L120.791,5.444 L113.879,5.444 L113.879,26.000 ZM92.459,26.000 L83.819,14.588 L83.819,26.000 L77.663,26.000 L77.663,0.548 L83.819,0.548 L83.819,11.744 L92.531,0.548 L99.911,0.548 L89.651,13.004 L99.911,26.000 L92.459,26.000 ZM61.932,20.492 C63.300,20.492 64.482,20.156 65.478,19.484 C66.473,18.812 67.211,17.900 67.692,16.748 L74.208,16.748 C73.583,19.628 72.210,21.926 70.086,23.642 C67.962,25.358 65.280,26.216 62.040,26.216 C59.568,26.216 57.396,25.670 55.524,24.578 C53.652,23.486 52.206,21.956 51.186,19.988 C50.165,18.020 49.656,15.776 49.656,13.256 C49.656,10.736 50.165,8.492 51.186,6.524 C52.206,4.556 53.652,3.026 55.524,1.934 C57.396,0.842 59.568,0.296 62.040,0.296 C65.280,0.296 67.962,1.148 70.086,2.852 C72.210,4.556 73.583,6.860 74.208,9.764 L67.692,9.764 C67.211,8.588 66.473,7.664 65.478,6.992 C64.482,6.320 63.300,5.984 61.932,5.984 C60.132,5.984 58.679,6.644 57.576,7.964 C56.472,9.284 55.920,11.048 55.920,13.256 C55.920,15.464 56.472,17.222 57.576,18.530 C58.679,19.838 60.132,20.492 61.932,20.492 ZM39.900,21.356 L30.360,21.356 L28.776,26.000 L22.296,26.000 L31.620,0.728 L38.712,0.728 L48.036,26.000 L41.484,26.000 L39.900,21.356 ZM35.148,7.316 L31.944,16.676 L38.316,16.676 L35.148,7.316 ZM20.892,19.052 C20.892,21.236 20.166,22.940 18.714,24.164 C17.262,25.388 15.180,26.000 12.468,26.000 L0.624,26.000 L0.624,0.548 L12.180,0.548 C14.772,0.548 16.776,1.112 18.192,2.240 C19.608,3.368 20.316,4.976 20.316,7.064 C20.316,8.600 19.908,9.878 19.092,10.898 C18.276,11.918 17.208,12.584 15.888,12.896 C17.424,13.256 18.642,14.000 19.542,15.128 C20.442,16.256 20.892,17.564 20.892,19.052 ZM10.740,5.480 L6.780,5.480 L6.780,10.952 L10.812,10.952 C12.948,10.952 14.016,10.040 14.016,8.216 C14.016,6.392 12.924,5.480 10.740,5.480 ZM13.692,16.046 C13.092,15.530 12.240,15.272 11.136,15.272 L6.780,15.272 L6.780,20.996 L11.172,20.996 C13.452,20.996 14.592,20.060 14.592,18.188 C14.592,17.276 14.292,16.562 13.692,16.046 Z"/>
</svg>